<?xml version="1.0" encoding="utf-8"?>
<!-- Generator: Adobe Illustrator 16.0.0, SVG Export Plug-In . SVG Version: 6.00 Build 0)  -->
<!DOCTYPE svg PUBLIC "-//W3C//DTD SVG 1.1//EN" "http://www.w3.org/Graphics/SVG/1.1/DTD/svg11.dtd">
<svg version="1.1" id="Layer_1" xmlns="http://www.w3.org/2000/svg" xmlns:xlink="http://www.w3.org/1999/xlink" x="0px" y="0px"
	 width="997.52px" height="319.484px" viewBox="0 0 997.52 319.484" enable-background="new 0 0 997.52 319.484"
	 xml:space="preserve">
<g>
	<path fill="#45F3FF" d="M49.837,151.417c21.087,0,24.057-11.583,24.057-21.978c0-8.316-1.188-16.632-2.376-24.948
		c-1.188-8.315-2.376-16.632-2.376-24.65c0-27.323,18.117-38.906,43.362-38.906h5.939v16.334h-5.049
		c-17.522,0.297-23.76,9.504-23.76,25.542c0,6.831,1.188,13.959,2.079,21.087c1.188,7.425,2.376,14.553,2.376,22.57
		c0.297,19.009-8.316,28.513-21.384,32.076v0.595c13.067,3.268,21.681,13.364,21.384,32.373c0,8.019-1.188,15.443-2.376,22.57
		c-0.891,7.426-2.079,14.256-2.079,21.385c0,16.632,7.128,25.541,23.76,25.839h5.049v16.336h-6.236
		c-24.354,0-43.065-10.691-43.065-40.689c0-8.018,1.188-16.334,2.674-24.354c0.891-8.021,2.078-16.037,2.078-23.761
		c0-9.503-2.97-22.274-24.057-22.274V151.417z"/>
	<path fill="#CDD6E6" d="M149.925,277.641V40.934h54.351v16.334h-33.857v204.037h33.857v16.336H149.925z"/>
	<path fill="#45F3FF" d="M299.838,161.285c0,21.238-10.619,31.881-31.857,31.931c-21.19,0-31.784-10.644-31.784-31.931V72.791
		c0-21.238,10.594-31.856,31.784-31.856c21.238,0,31.857,10.618,31.857,31.856v20.944h-24.557V72.791
		c0-5.505-2.409-8.284-7.227-8.333h-0.147c-4.769,0-7.153,2.778-7.153,8.333v88.494c0,5.556,2.408,8.333,7.227,8.333
		c4.867,0,7.3-2.777,7.3-8.333v-20.943h24.557V161.285z"/>
	<path fill="#45F3FF" d="M378.966,161.285c0,21.238-10.619,31.881-31.857,31.931c-21.189,0-31.784-10.644-31.784-31.931V72.791
		c0-21.238,10.594-31.856,31.784-31.856c21.238,0,31.857,10.618,31.857,31.856V161.285z M354.409,72.791
		c0-5.505-2.41-8.284-7.228-8.333h-0.146c-4.771,0-7.154,2.778-7.154,8.333v88.494c0,5.556,2.409,8.333,7.228,8.333
		c4.866,0,7.301-2.777,7.301-8.333V72.791z"/>
	<path fill="#45F3FF" d="M396.664,43.219h33.996c19.764,0.05,29.646,10.693,29.646,31.932v83.848c0,21.19-10.3,31.809-30.897,31.857
		h-32.743L396.664,43.219L396.664,43.219z M421.221,66.744v100.587h7.303c4.816,0,7.227-2.776,7.227-8.333V75.151
		c0-5.604-2.409-8.407-7.227-8.407H421.221z"/>
	<path fill="#45F3FF" d="M478.004,43.219h57.816v23.524h-33.26v38.495h28.612v23.598h-28.612v38.495h33.26v23.524h-57.816V43.219
		L478.004,43.219z"/>
	<path fill="#CDD6E6" d="M551.307,43.219h32.227c19.764,0.05,29.646,10.693,29.646,31.932v21.755
		c0,15.585-7.055,25.688-21.164,30.309c-3.393,1.082-8.26,1.622-14.602,1.622h-1.549v62.02h-24.558V43.219z M575.863,66.744v38.495
		h2.948c2.655,0,4.376-0.147,5.162-0.442c3.099-1.229,4.646-3.858,4.646-7.891V75.151c0-5.604-2.409-8.407-7.228-8.407H575.863z"/>
	<path fill="#CDD6E6" d="M628.664,43.219h32.227c19.765,0.05,29.646,10.693,29.646,31.932v21.755
		c0,13.373-5.359,22.025-16.077,25.958l23.673,67.992h-26.77l-16.814-63.493h-1.327v63.493h-24.557L628.664,43.219L628.664,43.219z
		 M653.221,66.744v38.495h2.95c2.654,0,4.375-0.147,5.162-0.442c3.097-1.229,4.646-3.858,4.646-7.891V75.151
		c0-5.604-2.408-8.407-7.227-8.407H653.221z"/>
	<path fill="#CDD6E6" d="M772.097,161.285c0,21.238-10.619,31.881-31.856,31.931c-21.189,0-31.783-10.644-31.783-31.931V72.791
		c0-21.238,10.594-31.856,31.783-31.856c21.237,0,31.856,10.618,31.856,31.856V161.285z M747.54,72.791
		c0-5.505-2.409-8.284-7.228-8.333h-0.146c-4.77,0-7.153,2.778-7.153,8.333v88.494c0,5.556,2.408,8.333,7.228,8.333
		c4.867,0,7.301-2.777,7.301-8.333L747.54,72.791L747.54,72.791z"/>
	<path fill="#CDD6E6" d="M847.595,40.934v236.707h-54.351v-16.336h33.857V57.268h-33.857V40.934H847.595z"/>
	<path fill="#45F3FF" d="M947.683,166.563c-21.087,0-24.057,12.771-24.057,22.274c0,7.724,1.188,15.74,2.376,23.761
		c1.188,8.02,2.376,16.336,2.376,24.354c0,29.998-18.711,40.689-43.064,40.689h-6.236v-16.336h5.049
		c16.632-0.298,23.76-9.207,23.76-25.839c0-7.129-1.188-13.959-2.079-21.385c-1.188-7.127-2.376-14.553-2.376-22.57
		c-0.297-19.008,8.316-29.105,21.384-32.373v-0.595c-13.066-3.563-21.681-13.067-21.384-32.076c0-8.019,1.188-15.146,2.376-22.57
		c0.893-7.128,2.079-14.256,2.079-21.087c0-16.038-6.235-25.245-23.76-25.542h-5.049V40.934h5.939
		c25.244,0,43.361,11.583,43.361,38.906c0,8.02-1.188,16.335-2.376,24.65c-1.188,8.316-2.376,16.632-2.376,24.948
		c0,10.395,2.97,21.978,24.057,21.978V166.563z"/>
</g>
<g>
	<path fill="#CDD6E6" d="M295.888,261.528l7.153-49.129h5.483l-2.506,18.816l-5.649,35.964h-8.879l-5.595-38.496l-5.567,38.496
		h-8.935l-5.678-36.021l-2.478-18.761h5.456l7.154,49.102L283,212.399h5.734L295.888,261.528z"/>
	<path fill="#CDD6E6" d="M341.314,237.117v5.345h-11.413v19.43h13.25v5.289h-18.678V212.4h18.678v5.289h-13.25v19.429
		L341.314,237.117L341.314,237.117z"/>
	<path fill="#CDD6E6" d="M360.214,212.399h11.384c6.42,0.02,9.631,3.582,9.631,10.688v8.656c0,3.211-2.087,5.892-6.263,8.044
		c4.175,2.153,6.263,4.835,6.263,8.045v8.686c0,7.089-3.396,10.642-10.188,10.661h-10.828L360.214,212.399L360.214,212.399z
		 M365.642,217.688v19.429h4.064c1.317,0,2.292-0.102,2.923-0.306c2.115-0.892,3.173-2.579,3.173-5.066v-8.656
		c0-3.601-1.688-5.399-5.065-5.399L365.642,217.688L365.642,217.688z M365.642,242.462v19.43h5.095c3.377,0,5.065-1.791,5.065-5.372
		v-8.686c0-2.522-1.058-4.203-3.173-5.038c-0.594-0.223-1.568-0.334-2.923-0.334H365.642L365.642,242.462z"/>
	<path fill="#45F3FF" d="M421.284,212.399h11.384c6.421,0.02,9.631,3.582,9.631,10.688v33.431c0,7.089-3.396,10.642-10.188,10.661
		h-10.827V212.399L421.284,212.399z M426.712,217.688v44.202h5.094c3.377,0,5.065-1.791,5.065-5.372v-33.431
		c0-3.601-1.688-5.399-5.065-5.399H426.712z"/>
	<path fill="#45F3FF" d="M477.038,237.117v5.345h-11.413v19.43h13.25v5.289h-18.678V212.4h18.678v5.289h-13.25v19.429
		L477.038,237.117L477.038,237.117z"/>
	<path fill="#45F3FF" d="M510.523,267.18h-8.937l-5.678-36.021l-2.479-18.761h5.483l7.126,49.185l7.153-49.185h5.512l-2.533,18.816
		L510.523,267.18z"/>
	<path fill="#45F3FF" d="M551.496,237.117v5.345h-11.412v19.43h13.249v5.289h-18.677V212.4h18.677v5.289h-13.249v19.429
		L551.496,237.117L551.496,237.117z"/>
	<path fill="#45F3FF" d="M570.396,267.18V212.4h5.428v49.491h13.249v5.289H570.396z"/>
	<path fill="#45F3FF" d="M625.481,257.437c0,7.107-3.508,10.67-10.521,10.688c-6.996,0-10.493-3.563-10.493-10.688v-35.295
		c0-7.106,3.497-10.66,10.493-10.66c7.015,0,10.521,3.554,10.521,10.66V257.437z M620.054,222.142c0-3.544-1.688-5.325-5.064-5.345
		h-0.057c-3.358,0-5.038,1.781-5.038,5.345v35.295c0,3.563,1.688,5.345,5.065,5.345c3.396,0,5.094-1.781,5.094-5.345V222.142
		L620.054,222.142z"/>
	<path fill="#45F3FF" d="M643.38,212.399h10.688c6.401,0.02,9.603,3.582,9.603,10.688v8.656c0,5.252-2.319,8.629-6.958,10.132
		c-1.133,0.391-2.83,0.585-5.094,0.585h-2.813v24.719h-5.428L643.38,212.399L643.38,212.399z M648.808,217.688v19.429h3.341
		c1.336,0,2.311-0.102,2.923-0.306c2.114-0.892,3.173-2.579,3.173-5.066v-8.656c0-3.601-1.68-5.399-5.038-5.399L648.808,217.688
		L648.808,217.688z"/>
	<path fill="#45F3FF" d="M697.574,237.117v5.345h-11.412v19.43h13.249v5.289h-18.677V212.4h18.677v5.289h-13.249v19.429
		L697.574,237.117L697.574,237.117z"/>
	<path fill="#45F3FF" d="M716.474,212.399h10.689c6.401,0.02,9.603,3.582,9.603,10.688v8.656c0,4.417-2.311,7.479-6.931,9.187
		l9.157,26.249h-6.012l-7.571-25.525l-3.507,0.195v25.33h-5.43L716.474,212.399L716.474,212.399z M721.902,217.688v19.429h3.34
		c1.336,0,2.311-0.102,2.923-0.306c2.115-0.892,3.173-2.579,3.173-5.066v-8.656c0-3.601-1.68-5.399-5.038-5.399L721.902,217.688
		L721.902,217.688z"/>
</g>
</svg>
