<?xml version="1.0" encoding="utf-8"?>
<!-- Generator: Adobe Illustrator 16.0.0, SVG Export Plug-In . SVG Version: 6.00 Build 0)  -->
<!DOCTYPE svg PUBLIC "-//W3C//DTD SVG 1.1//EN" "http://www.w3.org/Graphics/SVG/1.1/DTD/svg11.dtd">
<svg version="1.1" id="Layer_1" xmlns="http://www.w3.org/2000/svg" xmlns:xlink="http://www.w3.org/1999/xlink" x="0px" y="0px"
	 width="481px" height="480px" viewBox="0 0 481 480" enable-background="new 0 0 481 480" xml:space="preserve">
<rect fill="#45F3FF" width="481" height="480"/>
<path display="none" fill="#0A192F" d="M-1383.408-309.468h31.267v202.144h-31.267c-14.829,0-26.954-11.857-26.954-26.681v-148.778
	C-1410.362-297.333-1398.237-309.468-1383.408-309.468L-1383.408-309.468z M-1190.702-95.457v23.712
	c0,0.538-0.533,0.808-1.072,0.808h-217.781c-0.271,0-0.807-0.27-0.807-0.808v-23.712H-1190.702z M-1124.131-83.065l-33.148,6.194
	l-33.422,5.934v-12.128v-12.392l33.422,6.194L-1124.131-83.065z M-1123.862-83.065l-5.93,1.081l-5.93,1.076v-2.157v-2.152
	l5.93,1.076L-1123.862-83.065z M-1352.141-107.324v-202.144c75.998,0,152.281,0,228.279,0c0,67.381,0,134.767,0,202.144
	C-1199.86-107.324-1276.144-107.324-1352.141-107.324L-1352.141-107.324z M-1339.742-118.375v-180.042c67.913,0,135.562,0,203.484,0
	c0,60.103,0,120.209,0,180.042C-1204.182-118.375-1271.829-118.375-1339.742-118.375L-1339.742-118.375z M-1395.279-275.5
	c4.323,0,8.088,3.498,8.088,8.082c0,4.31-3.765,7.813-8.088,7.813c-4.573,0-8.075-3.503-8.075-7.813
	C-1403.354-272.001-1399.852-275.5-1395.279-275.5L-1395.279-275.5z M-1369.398-149.37c4.31,0,8.088,3.507,8.088,8.091
	c0,4.311-3.778,8.082-8.088,8.082c-4.577,0-8.084-3.771-8.084-8.082C-1377.483-145.863-1373.976-149.37-1369.398-149.37
	L-1369.398-149.37z M-1395.279-149.37c4.323,0,8.088,3.507,8.088,8.091c0,4.311-3.765,8.082-8.088,8.082
	c-4.573,0-8.075-3.771-8.075-8.082C-1403.354-145.863-1399.852-149.37-1395.279-149.37L-1395.279-149.37z M-1369.398-174.701
	c4.31,0,8.088,3.776,8.088,8.086c0,4.58-3.778,8.078-8.088,8.078c-4.577,0-8.084-3.498-8.084-8.078
	C-1377.483-170.925-1373.976-174.701-1369.398-174.701L-1369.398-174.701z M-1395.279-174.701c4.323,0,8.088,3.776,8.088,8.086
	c0,4.58-3.765,8.078-8.088,8.078c-4.573,0-8.075-3.498-8.075-8.078C-1403.354-170.925-1399.852-174.701-1395.279-174.701
	L-1395.279-174.701z M-1369.398-250.442c4.31,0,8.088,3.781,8.088,8.091c0,4.575-3.778,8.082-8.088,8.082
	c-4.577,0-8.084-3.507-8.084-8.082C-1377.483-246.662-1373.976-250.442-1369.398-250.442L-1369.398-250.442z M-1395.279-250.442
	c4.323,0,8.088,3.781,8.088,8.091c0,4.575-3.765,8.082-8.088,8.082c-4.573,0-8.075-3.507-8.075-8.082
	C-1403.354-246.662-1399.852-250.442-1395.279-250.442L-1395.279-250.442z M-1369.398-275.5c4.31,0,8.088,3.498,8.088,8.082
	c0,4.31-3.778,7.813-8.088,7.813c-4.577,0-8.084-3.503-8.084-7.813C-1377.483-272.001-1373.976-275.5-1369.398-275.5
	L-1369.398-275.5z M-1321.688-267.153h30.726v30.735h-30.726V-267.153z M-1286.923-246.662h30.724v30.457h-30.724V-246.662z
	 M-1251.88-226.448h30.457v30.457h-30.457V-226.448z M-1217.117-206.234h30.457v30.727h-30.457V-206.234z M-1405.245-227.269h45.551
	v45.558h-45.551V-227.269z M-1397.16-219.178h29.646v29.65h-29.646V-219.178z M-1392.032-214.056h19.4v19.411h-19.4V-214.056z
	 M-1160.514-141.015h17.523v17.522h-17.523V-141.015z M-1182.879-141.015h17.514v17.522h-17.514V-141.015z M-1204.991-141.015
	h17.254v17.522h-17.254V-141.015z"/>
<path display="none" fill="#0A192F" d="M-794.793-37.278h44.892v224.491h-44.892V-37.278L-794.793-37.278z M-599.93-37.278h-149.972
	v224.491h149.972V-37.278z M-599.93-37.278h44.676v224.491h-44.676V-37.278z M-713.892,36.113h77.719v77.716h-77.719V36.113z
	 M-656.448,75.085l-14.37,8.203l-14.134,8.207v-16.41v-16.41l14.134,8.203L-656.448,75.085z M-787.728-24.748h30.765V2.383h-30.765
	V-24.748z M-787.728,9.676h30.765v27.12h-30.765V9.676z M-787.728,44.32h30.765v26.893h-30.765V44.32z M-787.728,78.733h30.765
	v27.12h-30.765V78.733z M-787.728,113.146h30.765v27.119h-30.765V113.146z M-787.728,147.563h30.765v27.12h-30.765V147.563z
	 M-593.102-24.748h31.002V2.383h-31.002V-24.748z M-593.102,9.676h31.002v27.12h-31.002V9.676z M-593.102,44.32h31.002v26.893
	h-31.002V44.32z M-593.102,78.733h31.002v27.12h-31.002V78.733z M-593.102,113.146h31.002v27.119h-31.002V113.146z
	 M-593.102,147.563h31.002v27.12h-31.002V147.563z"/>
<g display="none">
	<text transform="matrix(1 0 0 1 -815.9297 309.4678)" display="inline" fill="#0A192F" font-family="'GoboldBold'" font-size="50">VIDEO EDITING</text>
</g>
<g display="none">
	<text transform="matrix(1 0 0 1 824.1367 445.5801)" display="inline" fill="#0A192F" font-family="'GoboldBold'" font-size="50">UI + UX</text>
</g>
<g display="none">
	<text transform="matrix(1 0 0 1 -1445.1367 37.2441)" display="inline" fill="#0A192F" font-family="'GoboldBold'" font-size="50">GRAPHICS ARTIST</text>
</g>
<path fill="#0A192F" d="M37.865,159.458v230.537h405.271V159.458H37.865z M205.598,250.342l-65.035,24.756l65.035,25.861v25.852
	l-93.111-40.266v-22.162l93.111-40.272V250.342z M233.298,344.921h-19.216l33.627-140.014h19.57L233.298,344.921z M368.507,286.546
	l-92.729,40.634v-26.219l64.646-25.493l-64.646-25.124v-26.232l92.729,40.273V286.546z"/>
<path fill="#0A192F" d="M37.865,90.005v58.37h405.271v-58.37H37.865z M349.663,135.083h-22.168v-20.691h22.168V135.083z
	 M385.871,135.083h-22.169v-20.691h22.169V135.083z M422.073,135.083h-22.155v-20.691h22.155V135.083z"/>
<path display="none" fill="#0A192F" d="M871.762,335.396c1.479,9.611,9.622,16.768,19.479,16.768s18.004-7.154,19.229-16.768
	c13.072-0.736,23.19-11.352,23.19-24.416H848.58C848.58,324.046,858.943,334.659,871.762,335.396L871.762,335.396z M984.202,154.895
	c0-51.034-41.425-92.713-92.713-92.713c-51.28,0-92.959,41.679-92.959,92.713c0,21.697,7.394,41.679,19.967,57.451
	c10.848,13.811,21.215,28.853,30.083,43.888v49.07h9.125v-83.833c-22.682-12.08-38.225-36-38.225-63.622
	c0-39.693,32.308-71.993,72.009-71.993c39.695,0,71.754,32.3,71.754,71.993c0,27.622-15.533,51.542-38.215,63.622v83.833h8.633
	v-48.08c8.87-14.789,20.457-31.808,30.813-44.878C976.8,196.574,984.202,176.592,984.202,154.895L984.202,154.895z M957.073,157.85
	c0-36.247-29.338-65.583-65.584-65.583s-65.838,29.337-65.838,65.583c0,23.925,13.08,44.879,32.054,56.478v-37.736h-4.193
	c6.663-11.341,13.08-22.435,19.729-33.53l0,0l17.512-29.341l17.504,29.341l0,0c6.909,11.833,13.314,22.436,19.729,33.53h-2.954
	v37.736C944.255,202.729,957.073,181.774,957.073,157.85L957.073,157.85z M917.626,176.592v128.715h-52.272V176.592H917.626z
	 M899.375,143.062l3.455,5.67l12.08,20.22h-24.159h-24.159l12.079-20.22l3.443-5.67H899.375z M890.751,128.266l2.216,3.701
	l1.979,3.447h-4.192h-4.193l1.979-3.447L890.751,128.266z"/>
</svg>
