<?xml version="1.0" encoding="utf-8"?>
<!-- Generator: Adobe Illustrator 16.0.0, SVG Export Plug-In . SVG Version: 6.00 Build 0)  -->
<!DOCTYPE svg PUBLIC "-//W3C//DTD SVG 1.1//EN" "http://www.w3.org/Graphics/SVG/1.1/DTD/svg11.dtd">
<svg version="1.1" id="Layer_1" xmlns="http://www.w3.org/2000/svg" xmlns:xlink="http://www.w3.org/1999/xlink" x="0px" y="0px"
	 width="481px" height="480px" viewBox="0 0 481 480" enable-background="new 0 0 481 480" xml:space="preserve">
<rect fill="#45F3FF" width="481" height="480"/>
<path fill="#0A192F" d="M214.812,415.192c1.937,12.596,12.609,21.972,25.523,21.972c12.918,0,23.592-9.375,25.2-21.972
	c17.128-0.966,30.387-14.874,30.387-31.993H184.435C184.435,400.318,198.014,414.227,214.812,415.192L214.812,415.192z
	 M362.149,178.67c0-66.874-54.282-121.488-121.487-121.488c-67.197,0-121.811,54.614-121.811,121.488
	c0,28.43,9.689,54.615,26.164,75.282c14.215,18.098,27.8,37.808,39.42,57.51v64.3h11.957V265.908
	c-29.721-15.828-50.089-47.172-50.089-83.368c0-52.012,42.336-94.337,94.359-94.337c52.018,0,94.022,42.325,94.022,94.337
	c0,36.195-20.354,67.54-50.075,83.368v109.854h11.313v-63.003c11.623-19.379,26.807-41.679,40.378-58.807
	C352.449,233.285,362.149,207.1,362.149,178.67L362.149,178.67z M326.601,182.542c0-47.497-38.443-85.938-85.938-85.938
	c-47.497,0-86.272,38.442-86.272,85.938c0,31.35,17.14,58.808,42.002,74.007V207.1h-5.494c8.731-14.86,17.14-29.397,25.851-43.936
	l0,0l22.947-38.447l22.938,38.447l0,0c9.053,15.506,17.445,29.4,25.85,43.936h-3.87v49.449
	C309.804,241.35,326.601,213.891,326.601,182.542L326.601,182.542z M274.91,207.1v168.664h-68.496V207.1H274.91z M250.995,163.164
	l4.526,7.43l15.83,26.496h-31.658h-31.657l15.828-26.496l4.511-7.43H250.995z M239.694,143.776l2.904,4.849l2.59,4.517h-5.493
	h-5.494l2.591-4.517L239.694,143.776z"/>
</svg>
