<?xml version="1.0" encoding="utf-8"?>
<!-- Generator: Adobe Illustrator 16.0.0, SVG Export Plug-In . SVG Version: 6.00 Build 0)  -->
<!DOCTYPE svg PUBLIC "-//W3C//DTD SVG 1.1//EN" "http://www.w3.org/Graphics/SVG/1.1/DTD/svg11.dtd">
<svg version="1.1" id="Layer_1" xmlns="http://www.w3.org/2000/svg" xmlns:xlink="http://www.w3.org/1999/xlink" x="0px" y="0px"
	 width="481px" height="480px" viewBox="0 0 481 480" enable-background="new 0 0 481 480" xml:space="preserve">
<rect fill="#45F3FF" width="481" height="480"/>
<g>
	<path fill="#0A192F" d="M132.594,70.608v330.447h220.757V70.608H132.594z M300.002,293.036H185.6V178.64h114.402V293.036z"/>
</g>
<g>
	<polygon fill="#0A192F" points="270.157,236.005 249.004,248.079 228.2,260.16 228.2,236.005 228.2,211.85 249.004,223.925 	"/>
</g>
<g>
	<rect x="76.915" y="89.053" fill="#0A192F" width="45.286" height="39.937"/>
</g>
<g>
	<rect x="76.915" y="139.724" fill="#0A192F" width="45.286" height="39.92"/>
</g>
<g>
	<rect x="76.915" y="190.721" fill="#0A192F" width="45.286" height="39.586"/>
</g>
<g>
	<rect x="76.915" y="241.377" fill="#0A192F" width="45.286" height="39.919"/>
</g>
<g>
	<rect x="76.915" y="292.031" fill="#0A192F" width="45.286" height="39.919"/>
</g>
<g>
	<rect x="76.915" y="342.689" fill="#0A192F" width="45.286" height="39.922"/>
</g>
<g>
	<rect x="363.401" y="89.053" fill="#0A192F" width="45.635" height="39.937"/>
</g>
<g>
	<rect x="363.401" y="139.724" fill="#0A192F" width="45.635" height="39.92"/>
</g>
<g>
	<rect x="363.401" y="190.721" fill="#0A192F" width="45.635" height="39.586"/>
</g>
<g>
	<rect x="363.401" y="241.377" fill="#0A192F" width="45.635" height="39.919"/>
</g>
<g>
	<rect x="363.401" y="292.031" fill="#0A192F" width="45.635" height="39.919"/>
</g>
<g>
	<rect x="363.401" y="342.689" fill="#0A192F" width="45.635" height="39.922"/>
</g>
<g>
	<path d="M422.442,402.556H60.073V68.427h362.37L422.442,402.556L422.442,402.556z M63.073,399.556h356.37V71.427H63.073V399.556z"
		/>
</g>
</svg>
